<?xml version="1.0" encoding="utf-8"?>
<!-- Generator: Adobe Illustrator 22.1.0, SVG Export Plug-In . SVG Version: 6.00 Build 0)  -->
<svg version="1.1" id="Layer_1" xmlns="http://www.w3.org/2000/svg" xmlns:xlink="http://www.w3.org/1999/xlink" x="0px" y="0px"
	 viewBox="0 0 287.2 320" style="enable-background:new 0 0 287.2 320;" xml:space="preserve">
<style type="text/css">
	.st0{fill:#5A6E7F;}
	.st1{stroke:#5A6E7F;stroke-width:3;stroke-miterlimit:10;}
</style>
<g>
	<path class="st0" d="M147.2,172.2c-0.3-5.9,1.4-8.9,6.9-12.2c38.2-23,76.3-46.2,114.4-69.3c1.8-1.1,4.9-2.8,6.8-3.9
		c5.6-3.1,11.2-0.2,11.9,6.2c0.5,5.5-0.1,10.6,0,16.3c0.7,36,0.2,72,0,108c0.5,17.9-7.5,29.7-22.7,38.3
		c-35.4,20.1-70.6,40.8-105.9,61.1c-8.4,4.8-17,4.6-25.5-0.5c-14.3-8.7-28.6-17.4-43-26c-3.5-2.1-4.5-4.9-5.1-9
		c-0.1-14.4-0.1-28.2-0.1-42.7c0.1-1.6,0-4.2,0.1-6.6c10.4,6,20.3,11.8,29.8,17.3c7,4,13.9,8.2,21.1,11.9c8.7,4.5,17.4,3.6,25.7-1.1
		c20.2-11.6,40.3-23.3,60.5-34.9c9.5-5.4,14.6-13.2,13.9-24.5c-0.4-6.4-0.1-12.8-0.2-19.3c-0.1-6.8-2.2-8.1-8-4.6
		c-15.7,9.4-31.3,19-47,28.5c-8.7,5.3-17.5,10.6-26.2,15.9c-3.7,2.2-5.7,1.3-5.9-3C148.4,207.9,147.2,182.4,147.2,172.2"/>
	<path class="st1" d="M62.7,278.7c-11.3-5.7-21.7-11-32-16.3c-7.2-3.7-14.3-7.5-21.4-11.3c-4.8-2.6-7.5-6.7-7.5-12.1
		c-0.1-22.3,0-44.5-0.1-66.8c0-4.4,2.8-6.7,6.1-8.6c10.7-6.2,21.4-12.3,32.1-18.4c22-12.7,44.1-25.4,66.1-38
		c22.9-13.1,45.9-26.2,68.8-39.3c12.8-7.3,25.7-14.6,38.4-22.1c4.3-2.5,8-2.6,12.2,0.4c10.2,7.2,20.7,14.1,31,21.1
		c0.8,0.5,1.5,1.2,2.7,2.2c-7.2,4.7-14,9.2-20.9,13.5c-25.1,15.8-50.3,31.6-75.4,47.5c-30.6,19.3-61.2,38.8-91.8,58
		c-6,3.8-8.7,9-8.6,16c0.1,22.7,0.2,45.4,0.2,68.1C62.7,274.3,62.7,276,62.7,278.7z"/>
	<path class="st1" d="M209.2,34.4C139.9,72.9,71.3,111.1,1.9,149.7c-0.2-2.2-0.3-3.6-0.3-4.9c0-16,0.1-32-0.1-48
		C1.4,89.2,4.5,83.7,11,80c24.7-14.3,49.4-28.6,74.1-42.9c18.6-10.7,37.3-21.2,55.7-32.1c7.7-4.5,14.6-4.8,22.2,0.2
		c14,9.2,28.4,17.8,42.6,26.7C206.7,32.5,207.7,33.3,209.2,34.4z"/>
</g>
</svg>
